<svg xmlns="http://www.w3.org/2000/svg" xmlns:svg="http://www.w3.org/2000/svg" id="svg3014" width="16" height="16.008" version="1.1"><metadata id="metadata3019"/><g id="layer1" transform="translate(400,-436.36744)"><path style="fill:#f2cb05;fill-opacity:1;stroke:none" id="rect3123" d="m -395.5,436.375 c -2.5274,0.25514 -4.5,2.40313 -4.5,5 l 0,6 c 0,2.77 2.23,5 5,5 l 6,0 c 2.77,0 5,-2.23 5,-5 l 0,-6 c 0,-2.77 -2.23,-5 -5,-5 l -6,0 c -0.17313,0 -0.33151,-0.017 -0.5,0 z m 0.5,3 6,0 c 1.108,0 2,0.892 2,2 l 0,6 c 0,1.108 -0.892,2 -2,2 l -6,0 c -1.108,0 -2,-0.892 -2,-2 l 0,-6 c 0,-1.108 0.892,-2 2,-2 z"/></g></svg>